<?xml version="1.0" standalone="no"?>
<!DOCTYPE svg PUBLIC "-//W3C//DTD SVG 20010904//EN"
 "http://www.w3.org/TR/2001/REC-SVG-20010904/DTD/svg10.dtd">
<svg version="1.0" xmlns="http://www.w3.org/2000/svg"
 width="500.000000pt" height="500.000000pt" viewBox="0 0 500.000000 500.000000"
 preserveAspectRatio="xMidYMid meet">
<metadata>
Created by potrace 1.14, written by Peter Selinger 2001-2017
</metadata>
<g transform="translate(0.000000,500.000000) scale(0.100000,-0.100000)"
fill="#000000" stroke="none">
<path d="M2380 4265 c-838 -115 -1471 -787 -1539 -1634 -13 -156 0 -332 35
-496 37 -174 43 -156 -56 -178 -114 -24 -306 -34 -365 -17 -67 19 -105 66
-105 130 0 58 25 92 60 83 25 -7 44 -39 35 -60 -5 -14 -7 -14 -19 2 -8 11 -19
16 -30 12 -24 -10 -2 -47 27 -47 49 0 62 48 26 94 -17 21 -29 26 -65 26 -37 0
-51 -6 -75 -29 -24 -25 -29 -38 -29 -78 0 -70 33 -122 95 -153 46 -23 60 -25
185 -24 98 0 166 6 249 23 62 12 114 21 115 19 1 -2 15 -37 30 -78 33 -88 105
-227 168 -326 162 -251 441 -498 711 -628 282 -137 624 -202 915 -176 456 41
849 228 1153 547 178 188 317 414 402 656 1 5 54 -2 117 -14 84 -17 152 -23
250 -23 122 -1 140 1 183 22 93 47 130 171 68 233 -57 57 -161 30 -161 -42 0
-32 21 -52 52 -47 15 2 24 11 26 26 4 27 -22 30 -37 5 -9 -17 -10 -17 -16 -1
-16 40 37 78 72 53 14 -10 18 -27 18 -74 0 -52 -4 -63 -28 -89 -42 -43 -97
-55 -229 -49 -108 4 -274 31 -291 47 -5 4 1 44 13 89 75 294 68 645 -19 937
-169 566 -607 1013 -1171 1192 -240 76 -523 101 -770 67z m385 -15 c226 -21
429 -80 640 -185 589 -294 965 -904 965 -1565 0 -125 -15 -249 -46 -390 -14
-63 -28 -117 -30 -119 -2 -2 -31 2 -65 8 -46 9 -68 19 -82 38 -50 63 -185 84
-261 40 -50 -27 -69 -60 -96 -161 -23 -87 -47 -136 -67 -136 -15 0 -15 4 -17
247 -1 163 -2 173 -23 194 -18 18 -25 20 -36 10 -8 -6 -18 -22 -21 -35 -5 -21
-10 -22 -58 -19 -101 8 -151 -55 -166 -208 -10 -90 -50 -189 -77 -189 -13 0
-15 27 -15 173 l0 172 45 52 c25 28 45 54 45 57 0 17 -28 2 -52 -26 l-27 -33
-1 163 c0 148 -2 164 -20 182 -45 45 -61 11 -71 -153 -4 -71 -10 -131 -12
-133 -2 -2 -17 2 -33 11 -37 19 -57 19 -94 0 -61 -31 -89 -100 -93 -227 -3
-100 -33 -171 -84 -200 -38 -23 -58 -16 -72 25 -10 26 -8 34 9 52 53 56 73
219 34 272 -64 85 -154 -10 -154 -161 0 -76 -18 -126 -60 -168 -43 -44 -62
-47 -84 -16 -22 31 -20 56 8 89 31 37 58 151 47 199 -17 69 -35 90 -79 90 -41
0 -92 -92 -92 -166 0 -31 -26 -69 -47 -69 -4 0 -5 32 -4 72 3 93 -13 149 -54
190 -43 43 -77 43 -116 2 -16 -17 -29 -35 -29 -40 0 -5 -3 -9 -7 -9 -5 0 -8
78 -8 173 0 133 -3 178 -14 190 -18 22 -47 22 -56 0 -11 -27 -25 -332 -23
-473 2 -108 0 -134 -20 -191 -22 -65 -55 -110 -70 -95 -4 4 -5 97 -4 205 4
197 4 198 -20 226 -30 35 -56 29 -65 -15 -5 -26 -9 -29 -27 -23 -97 35 -177
-42 -195 -188 -6 -41 -6 -78 -2 -84 5 -5 11 -21 14 -35 10 -41 69 -91 115 -97
35 -5 44 -1 67 21 15 15 28 26 29 24 20 -44 37 -66 60 -77 25 -12 31 -11 55 6
14 10 38 43 52 73 23 46 28 50 34 32 8 -29 33 -28 44 1 4 12 14 59 20 105 30
209 98 326 132 225 12 -36 7 -190 -7 -226 -3 -9 -21 -19 -38 -23 -49 -9 -86
-43 -93 -86 -8 -52 16 -88 60 -88 52 0 92 32 123 98 37 77 94 110 94 55 0 -48
19 -99 46 -127 54 -53 163 -26 202 50 l19 38 12 -37 c18 -53 53 -77 113 -77
45 0 53 4 103 51 37 35 52 56 47 67 -3 9 15 -5 39 -31 55 -57 98 -63 147 -22
l30 25 6 -30 c21 -106 107 -116 157 -17 12 23 23 43 24 45 1 1 18 -13 38 -33
31 -31 41 -35 84 -35 37 0 55 5 68 20 18 19 18 19 34 -13 9 -17 29 -38 44 -45
55 -27 97 23 149 178 40 122 66 150 138 150 53 0 112 -19 126 -41 4 -8 2 -15
-7 -18 -8 -2 -29 -19 -46 -37 -43 -42 -46 -102 -8 -139 61 -62 155 2 155 106
0 24 3 30 16 25 9 -3 23 -6 32 -6 43 -1 44 -14 7 -107 -97 -243 -267 -485
-460 -655 -217 -191 -467 -325 -735 -393 -799 -203 -1622 170 -2000 906 -72
140 -105 230 -88 240 7 5 21 9 30 9 9 0 23 3 32 6 13 5 16 -1 16 -30 0 -106
95 -161 161 -95 32 32 22 104 -19 140 -16 15 -35 28 -43 31 -19 6 -1 28 37 44
51 21 115 18 155 -9 l34 -23 5 -119 c3 -66 9 -126 13 -132 15 -24 36 -14 41
20 14 90 16 142 17 381 0 142 4 254 8 250 5 -5 14 -31 21 -59 7 -27 19 -60 26
-72 16 -26 50 -174 59 -258 15 -148 29 -241 37 -257 14 -28 47 -22 59 10 29
74 35 655 8 740 -7 20 -17 32 -29 32 -23 0 -29 -30 -40 -226 -5 -86 -11 -158
-14 -162 -3 -3 -6 5 -6 18 0 32 -67 227 -91 267 -18 29 -62 53 -74 41 -12 -11
-32 -259 -35 -430 0 -4 -15 1 -32 12 -67 41 -207 18 -254 -42 -18 -23 -91 -48
-138 -48 -8 0 -21 34 -35 90 -110 449 -39 927 197 1318 87 145 170 248 296
369 136 130 262 219 431 302 307 152 608 211 930 181z m429 -2059 c40 -76 39
-245 -1 -314 -15 -25 -26 -32 -49 -32 -24 0 -31 6 -41 35 -24 69 -9 268 23
318 20 31 50 28 68 -7z m-1290 -57 c9 -8 16 -17 16 -18 0 -1 5 -27 10 -58 12
-66 -1 -176 -27 -214 -20 -31 -60 -42 -80 -21 -24 23 -27 96 -8 188 15 77 44
139 65 139 5 0 16 -7 24 -16z m1701 -8 c20 -30 29 -175 14 -229 -10 -39 -57
-97 -78 -97 -6 0 -19 12 -28 27 -23 34 -22 132 1 223 25 96 59 125 91 76z
m-1005 -59 c0 -59 -15 -123 -32 -133 -12 -8 -6 144 7 178 12 32 25 8 25 -45z
m265 -42 c-3 -29 -13 -61 -20 -71 -13 -17 -14 -13 -15 41 0 33 5 78 11 100
l12 40 9 -28 c6 -16 7 -52 3 -82z m-1703 -72 c23 -21 25 -91 2 -100 -24 -9
-46 20 -51 71 -5 40 -3 46 12 46 10 0 27 -7 37 -17z m2958 -7 c0 -36 -20 -84
-38 -91 -23 -9 -43 22 -35 54 13 56 73 87 73 37z m-1824 -90 c-16 -38 -41 -55
-57 -39 -16 16 10 61 40 71 14 5 27 8 29 7 2 -2 -4 -19 -12 -39z"/>
<path d="M3243 3606 c-23 -14 -57 -36 -76 -50 -37 -29 -77 -26 -77 5 0 21 -29
26 -47 8 -16 -16 -63 0 -63 22 0 21 -29 26 -47 8 -7 -7 -28 -6 -71 5 -55 15
-92 14 -92 -2 0 -4 47 -54 105 -112 l104 -105 -72 -78 -72 -77 -39 9 c-63 15
-91 -6 -37 -29 37 -15 67 -50 88 -101 19 -49 33 -36 33 32 l0 46 85 56 c47 32
87 57 89 57 2 0 40 -51 85 -114 44 -63 85 -117 90 -121 15 -9 24 38 19 101 -3
38 -1 58 9 65 19 16 16 37 -7 49 -24 13 -26 47 -4 71 17 19 11 39 -12 39 -30
0 -12 44 41 102 100 108 81 178 -32 114z"/>
<path d="M1925 3505 c-5 -2 -22 -6 -37 -9 -49 -11 -33 -29 20 -22 63 9 82 15
82 27 0 8 -43 11 -65 4z"/>
<path d="M2125 3490 c-5 -9 32 -22 103 -36 53 -11 37 14 -20 31 -60 18 -75 19
-83 5z"/>
<path d="M3360 3481 c0 -11 128 -27 137 -17 10 10 -46 26 -93 26 -24 0 -44 -4
-44 -9z"/>
<path d="M1680 3384 c-36 -33 -52 -64 -32 -64 10 0 92 83 92 93 0 16 -22 5
-60 -29z"/>
<path d="M3620 3409 c0 -14 76 -89 90 -89 18 0 10 14 -32 57 -43 44 -58 52
-58 32z"/>
<path d="M2372 3382 c8 -20 89 -83 100 -79 16 5 -66 87 -88 87 -9 0 -14 -4
-12 -8z"/>
<path d="M1531 3161 c-22 -52 -27 -81 -12 -81 8 0 51 102 51 121 0 24 -20 4
-39 -40z"/>
<path d="M3760 3181 c0 -42 13 -111 21 -111 10 0 12 90 3 114 -8 22 -24 20
-24 -3z"/>
<path d="M2548 3184 c-10 -9 36 -114 50 -114 16 0 15 11 -7 63 -19 45 -33 61
-43 51z"/>
<path d="M2766 3096 c-39 -47 -43 -56 -23 -56 13 0 77 76 77 92 0 19 -21 5
-54 -36z"/>
<path d="M1467 2943 c-11 -19 -19 -123 -9 -123 9 0 32 81 32 115 0 16 -16 20
-23 8z"/>
<path d="M3754 2929 c-13 -17 -37 -109 -30 -116 11 -11 25 10 36 57 13 55 11
80 -6 59z"/>
<path d="M2625 2898 c11 -51 18 -55 31 -17 17 48 17 49 -12 49 -24 0 -25 -2
-19 -32z"/>
<path d="M1940 2799 c0 -7 12 -48 28 -91 22 -66 30 -78 47 -76 13 2 25 17 35
46 8 23 17 42 21 42 3 0 12 -20 19 -46 10 -36 17 -44 33 -42 14 2 27 24 49 86
17 46 27 86 24 90 -15 14 -40 -17 -55 -68 l-17 -55 -20 60 c-12 33 -27 60 -34
60 -7 0 -21 -22 -30 -50 -9 -27 -20 -50 -25 -50 -5 0 -16 23 -25 50 -10 30
-24 51 -33 53 -10 2 -17 -2 -17 -9z"/>
<path d="M2243 2786 c-23 -20 -28 -32 -28 -69 0 -54 23 -84 70 -93 43 -8 89
16 105 55 38 93 -71 172 -147 107z m111 -49 c16 -43 -6 -77 -49 -77 -28 0 -38
5 -46 24 -24 52 16 104 66 86 11 -4 24 -19 29 -33z"/>
<path d="M2428 2804 c-5 -4 -8 -45 -8 -91 0 -76 2 -83 20 -83 16 0 20 7 20 30
0 17 4 30 10 30 5 0 22 -13 37 -30 14 -16 35 -30 45 -30 24 0 23 12 -2 35
l-20 18 20 22 c44 47 15 96 -62 103 -29 2 -56 0 -60 -4z m100 -61 c3 -20 -1
-23 -32 -23 -32 0 -36 3 -36 26 0 23 3 25 33 22 24 -2 33 -8 35 -25z"/>
<path d="M2597 2804 c-4 -4 -7 -45 -7 -91 l0 -83 65 0 c51 0 65 3 65 15 0 11
-12 15 -45 15 l-44 0 -3 72 c-3 65 -13 89 -31 72z"/>
<path d="M2740 2743 c0 -38 -3 -78 -6 -90 -6 -22 -4 -23 52 -23 65 1 88 13
104 55 25 67 -28 125 -115 125 l-35 0 0 -67z m104 11 c35 -35 6 -94 -46 -94
-27 0 -28 1 -28 55 0 54 0 55 29 55 16 0 37 -7 45 -16z"/>
<path d="M2989 2781 c-60 -61 -23 -156 61 -156 34 0 47 6 66 28 78 91 -43 212
-127 128z m109 -29 c17 -22 15 -57 -4 -76 -23 -24 -70 -20 -88 6 -22 31 -20
45 9 74 27 27 59 26 83 -4z"/>
<path d="M3175 2799 c-4 -6 -7 -45 -7 -87 0 -63 3 -78 16 -80 12 -3 16 4 16
27 0 30 1 31 45 31 33 0 45 4 45 14 0 10 -14 16 -42 18 -36 2 -44 7 -46 26 -3
20 1 22 41 22 48 0 58 5 50 26 -6 17 -108 20 -118 3z"/>
<path d="M3647 2641 c-27 -49 -36 -88 -17 -76 18 11 62 107 53 116 -5 5 -21
-14 -36 -40z"/>
<path d="M1440 2615 c0 -37 4 -65 10 -65 6 0 10 28 10 65 0 37 -4 65 -10 65
-6 0 -10 -28 -10 -65z"/>
<path d="M3503 2400 c-37 -56 -38 -60 -20 -60 11 0 77 88 77 103 0 22 -29 0
-57 -43z"/>
<path d="M1902 1748 c6 -18 79 -67 101 -68 30 0 19 14 -37 48 -59 35 -70 38
-64 20z"/>
<path d="M2738 1689 c-46 -30 -60 -49 -37 -49 15 0 99 59 99 70 0 16 -12 12
-62 -21z"/>
<path d="M2135 1620 c-6 -10 87 -60 113 -60 29 0 8 22 -44 45 -65 29 -61 28
-69 15z"/>
<path d="M2421 1571 c-8 -5 -12 -18 -8 -30 4 -16 1 -21 -14 -21 -31 0 -22 -18
16 -30 44 -14 95 -56 95 -77 0 -9 -8 -22 -17 -29 -15 -10 -16 -15 -5 -25 17
-18 15 -56 -4 -63 -14 -5 -14 -9 -3 -23 8 -9 14 -39 14 -71 0 -31 5 -57 11
-59 6 -2 39 39 73 91 l62 94 69 -42 c65 -39 69 -43 70 -78 0 -53 15 -55 39 -5
12 24 32 49 46 55 41 19 31 35 -17 28 -42 -6 -44 -5 -90 48 -34 39 -46 60 -42
73 4 10 37 49 73 86 75 76 73 96 -7 72 -31 -10 -51 -11 -63 -4 -14 7 -21 5
-29 -12 -10 -17 -18 -20 -46 -14 -26 4 -34 2 -34 -8 0 -22 -29 -29 -51 -14
-19 14 -19 14 1 32 27 24 14 40 -17 20 -23 -15 -28 -15 -64 -1 -46 19 -40 18
-58 7z"/>
<path d="M2296 1424 c-19 -11 -25 -19 -18 -26 7 -7 20 -4 41 8 53 31 33 48
-23 18z"/>
<path d="M3151 2012 c-29 -25 -42 -43 -37 -51 6 -9 20 -1 52 30 42 41 53 59
37 59 -5 0 -28 -17 -52 -38z"/>
</g>
</svg>
